<?xml version="1.0" encoding="UTF-8" standalone="no"?>
<svg
   xmlns:dc="http://purl.org/dc/elements/1.1/"
   xmlns:cc="http://creativecommons.org/ns#"
   xmlns:rdf="http://www.w3.org/1999/02/22-rdf-syntax-ns#"
   xmlns:svg="http://www.w3.org/2000/svg"
   xmlns="http://www.w3.org/2000/svg"
   xmlns:sodipodi="http://sodipodi.sourceforge.net/DTD/sodipodi-0.dtd"
   xmlns:inkscape="http://www.inkscape.org/namespaces/inkscape"
   version="1.1"
   id="svg2"
   xml:space="preserve"
   width="266.66666"
   height="266.66666"
   viewBox="0 0 266.66666 266.66666"
   sodipodi:docname="zend-cert-eng-2017-php.eps"><metadata
     id="metadata8"><rdf:RDF><cc:Work
         rdf:about=""><dc:format>image/svg+xml</dc:format><dc:type
           rdf:resource="http://purl.org/dc/dcmitype/StillImage" /></cc:Work></rdf:RDF></metadata><defs
     id="defs6"><clipPath
       clipPathUnits="userSpaceOnUse"
       id="clipPath20"><path
         d="M 1900,0 H 100 C 44.7695,0 0,44.7695 0,100 v 1800 c 0,55.23 44.7695,100 100,100 h 1800 c 55.22,0 100,-44.77 100,-100 V 100 C 2000,44.7695 1955.22,0 1900,0 Z"
         id="path18" /></clipPath><linearGradient
       x1="0"
       y1="0"
       x2="1"
       y2="0"
       gradientUnits="userSpaceOnUse"
       gradientTransform="matrix(0,-2000,-2000,0,1000,2000)"
       spreadMethod="pad"
       id="linearGradient26"><stop
         style="stop-opacity:1;stop-color:#315c97"
         offset="0"
         id="stop22" /><stop
         style="stop-opacity:1;stop-color:#152a43"
         offset="1"
         id="stop24" /></linearGradient></defs><sodipodi:namedview
     pagecolor="#ffffff"
     bordercolor="#666666"
     borderopacity="1"
     objecttolerance="10"
     gridtolerance="10"
     guidetolerance="10"
     inkscape:pageopacity="0"
     inkscape:pageshadow="2"
     inkscape:window-width="640"
     inkscape:window-height="480"
     id="namedview4" /><g
     id="g10"
     inkscape:groupmode="layer"
     inkscape:label="ink_ext_XXXXXX"
     transform="matrix(1.3333333,0,0,-1.3333333,0,266.66667)"><g
       id="g12"
       transform="scale(0.1)"><g
         id="g14"><g
           id="g16"
           clip-path="url(#clipPath20)"><path
             d="M 1900,0 H 100 C 44.7695,0 0,44.7695 0,100 v 1800 c 0,55.23 44.7695,100 100,100 h 1800 c 55.22,0 100,-44.77 100,-100 V 100 C 2000,44.7695 1955.22,0 1900,0"
             style="fill:url(#linearGradient26);fill-opacity:1;fill-rule:nonzero;stroke:none"
             id="path28" /></g></g><path
         d="m 220.84,1422.71 c -13.656,0 -24.223,-5.12 -31.719,-15.39 -7.484,-10.25 -11.23,-24.55 -11.23,-42.89 0,-38.15 14.316,-57.22 42.949,-57.22 12.012,0 26.562,3 43.652,9 v -30.41 c -14.043,-5.87 -29.73,-8.79 -47.051,-8.79 -24.886,0 -43.925,7.55 -57.109,22.65 -13.184,15.09 -19.773,36.77 -19.773,65.01 0,17.79 3.234,33.38 9.711,46.75 6.472,13.38 15.781,23.64 27.914,30.77 12.125,7.15 26.347,10.72 42.656,10.72 16.617,0 33.308,-4.02 50.09,-12.06 l -11.707,-29.49 c -6.395,3.04 -12.836,5.7 -19.305,7.96 -6.48,2.25 -12.84,3.39 -19.078,3.39"
         style="fill:#f4f4f4;fill-opacity:1;fill-rule:nonzero;stroke:none"
         id="path30" /><path
         d="m 399.43,1279.35 h -98.547 v 171.1 h 98.547 v -29.73 h -62.266 v -37.57 h 57.93 v -29.71 h -57.93 v -44.13 h 62.266 v -29.96"
         style="fill:#f4f4f4;fill-opacity:1;fill-rule:nonzero;stroke:none"
         id="path32" /><path
         d="m 471.402,1374.5 h 11.703 c 11.469,0 19.93,1.91 25.391,5.73 5.457,3.82 8.192,9.84 8.192,18.02 0,8.12 -2.786,13.89 -8.368,17.33 -5.578,3.43 -14.215,5.14 -25.918,5.14 h -11 z m 0,-29.48 v -65.67 h -36.285 v 171.1 h 49.863 c 23.247,0 40.45,-4.23 51.606,-12.69 11.156,-8.48 16.738,-21.33 16.738,-38.56 0,-10.08 -2.773,-19.03 -8.312,-26.87 -5.543,-7.85 -13.379,-13.99 -23.524,-18.44 25.746,-38.46 42.528,-63.31 50.325,-74.54 h -40.258 l -40.848,65.67 h -19.305"
         style="fill:#f4f4f4;fill-opacity:1;fill-rule:nonzero;stroke:none"
         id="path34" /><path
         d="m 659.352,1279.35 h -36.278 v 140.91 h -46.465 v 30.19 h 129.204 v -30.19 h -46.461 v -140.91"
         style="fill:#f4f4f4;fill-opacity:1;fill-rule:nonzero;stroke:none"
         id="path36" /><path
         d="m 732.145,1279.35 v 171.1 h 36.285 v -171.1 h -36.285"
         style="fill:#f4f4f4;fill-opacity:1;fill-rule:nonzero;stroke:none"
         id="path38" /><path
         d="m 847.188,1279.35 h -35.7 v 171.1 h 98.078 v -29.73 h -62.378 v -44.12 h 58.046 v -29.61 h -58.046 v -67.64"
         style="fill:#f4f4f4;fill-opacity:1;fill-rule:nonzero;stroke:none"
         id="path40" /><path
         d="m 943.031,1279.35 v 171.1 h 36.285 v -171.1 h -36.285"
         style="fill:#f4f4f4;fill-opacity:1;fill-rule:nonzero;stroke:none"
         id="path42" /><path
         d="m 1120.93,1279.35 h -98.55 v 171.1 h 98.55 v -29.73 h -62.27 v -37.57 h 57.93 v -29.71 h -57.93 v -44.13 h 62.27 v -29.96"
         style="fill:#f4f4f4;fill-opacity:1;fill-rule:nonzero;stroke:none"
         id="path44" /><path
         d="m 1260.89,1365.6 c 0,36.74 -16.23,55.12 -48.69,55.12 h -19.3 v -111.41 h 15.56 c 34.95,0 52.43,18.76 52.43,56.29 z m 37.68,0.94 c 0,-28.16 -8.01,-49.74 -24.05,-64.72 -16.03,-14.98 -39.18,-22.47 -69.45,-22.47 h -48.45 v 171.1 h 53.71 c 27.94,0 49.62,-7.38 65.07,-22.12 15.45,-14.74 23.17,-35.34 23.17,-61.79"
         style="fill:#f4f4f4;fill-opacity:1;fill-rule:nonzero;stroke:none"
         id="path46" /><path
         d="m 245.531,1052.99 h -95.379 v 171.11 h 95.379 v -17.68 h -75.488 v -55.12 h 70.926 v -17.55 h -70.926 v -62.96 h 75.488 v -17.8"
         style="fill:#f4f4f4;fill-opacity:1;fill-rule:nonzero;stroke:none"
         id="path48" /><path
         d="m 417.102,1052.99 h -22.707 l -93.504,143.6 h -0.934 c 1.242,-16.85 1.867,-32.3 1.867,-46.35 v -97.25 h -18.371 v 171.11 h 22.469 l 93.277,-143.02 h 0.934 c -0.156,2.1 -0.508,8.87 -1.055,20.31 -0.547,11.41 -0.742,19.59 -0.586,24.52 v 98.19 h 18.61 v -171.11"
         style="fill:#f4f4f4;fill-opacity:1;fill-rule:nonzero;stroke:none"
         id="path50" /><path
         d="m 539.395,1142.63 h 58.16 v -83.2 c -9.047,-2.88 -18.258,-5.07 -27.614,-6.56 -9.367,-1.48 -20.211,-2.23 -32.539,-2.23 -25.898,0 -46.07,7.71 -60.504,23.13 -14.437,15.41 -21.648,36.99 -21.648,64.77 0,17.79 3.563,33.38 10.707,46.75 7.141,13.39 17.41,23.6 30.836,30.67 13.422,7.06 29.141,10.59 47.168,10.59 18.258,0 35.262,-3.35 51.023,-10.07 l -7.722,-17.55 c -15.449,6.56 -30.321,9.82 -44.59,9.82 -20.836,0 -37.098,-6.19 -48.805,-18.59 -11.703,-12.41 -17.554,-29.61 -17.554,-51.62 0,-23.09 5.636,-40.61 16.91,-52.55 11.273,-11.94 27.832,-17.9 49.687,-17.9 11.852,0 23.442,1.37 34.758,4.1 v 52.66 h -38.273 v 17.78"
         style="fill:#f4f4f4;fill-opacity:1;fill-rule:nonzero;stroke:none"
         id="path52" /><path
         d="m 638.637,1052.99 v 171.11 h 19.894 v -171.11 h -19.894"
         style="fill:#f4f4f4;fill-opacity:1;fill-rule:nonzero;stroke:none"
         id="path54" /><path
         d="m 839.109,1052.99 h -22.703 l -93.508,143.6 h -0.933 c 1.25,-16.85 1.875,-32.3 1.875,-46.35 v -97.25 h -18.375 v 171.11 h 22.469 l 93.273,-143.02 h 0.938 c -0.157,2.1 -0.508,8.87 -1.059,20.31 -0.543,11.41 -0.738,19.59 -0.582,24.52 v 98.19 h 18.605 v -171.11"
         style="fill:#f4f4f4;fill-opacity:1;fill-rule:nonzero;stroke:none"
         id="path56" /><path
         d="m 981.531,1052.99 h -95.375 v 171.11 h 95.375 v -17.68 h -75.484 v -55.12 h 70.922 v -17.55 h -70.922 v -62.96 h 75.484 v -17.8"
         style="fill:#f4f4f4;fill-opacity:1;fill-rule:nonzero;stroke:none"
         id="path58" /><path
         d="m 1114.84,1052.99 h -95.38 v 171.11 h 95.38 v -17.68 h -75.49 v -55.12 h 70.92 v -17.55 h -70.92 v -62.96 h 75.49 v -17.8"
         style="fill:#f4f4f4;fill-opacity:1;fill-rule:nonzero;stroke:none"
         id="path60" /><path
         d="m 1172.65,1141.23 h 27.27 c 14.04,0 24.35,2.79 30.9,8.37 6.55,5.58 9.83,13.95 9.83,25.11 0,11.31 -3.34,19.47 -10.01,24.45 -6.67,4.99 -17.38,7.49 -32.12,7.49 h -25.87 z m 0,-17.09 v -71.15 h -19.89 v 171.11 h 46.94 c 20.97,0 36.48,-4.03 46.5,-12.06 10.03,-8.03 15.04,-20.13 15.04,-36.28 0,-22.63 -11.45,-37.91 -34.4,-45.88 l 46.46,-76.89 h -23.51 l -41.44,71.15 h -35.7"
         style="fill:#f4f4f4;fill-opacity:1;fill-rule:nonzero;stroke:none"
         id="path62" /><path
         d="M 339.684,174.512 H 138.215 v 49.367 L 206,292.43 c 19.371,20.25 32.023,34.082 37.98,41.492 5.954,7.398 10.086,13.758 12.434,19.078 2.348,5.309 3.512,10.879 3.512,16.711 0,7.219 -2.344,12.91 -7.028,17.09 -4.675,4.179 -11.265,6.269 -19.746,6.269 -8.734,0 -17.562,-2.5 -26.488,-7.5 -8.926,-5.011 -19.012,-12.379 -30.285,-22.129 l -41.207,48.231 c 14.308,12.789 26.328,21.937 36.078,27.449 9.75,5.5 20.348,9.699 31.809,12.617 11.457,2.903 24.328,4.371 38.64,4.371 17.973,0 34.02,-3.179 48.137,-9.488 14.117,-6.34 25.066,-15.359 32.852,-27.07 7.785,-11.692 11.675,-24.84 11.675,-39.403 0,-10.886 -1.355,-20.949 -4.082,-30.187 -2.726,-9.242 -6.929,-18.332 -12.625,-27.25 -5.699,-8.922 -13.265,-18.32 -22.695,-28.191 -9.426,-9.879 -29.527,-28.629 -60.289,-56.219 v -1.891 h 105.012 v -61.898"
         style="fill:#438cc6;fill-opacity:1;fill-rule:nonzero;stroke:none"
         id="path64" /><path
         d="m 433.066,312.93 c 0,-31.391 1.961,-52.981 5.883,-64.739 3.922,-11.781 10.516,-17.671 19.75,-17.671 9.371,0 15.981,6.082 19.848,18.23 3.859,12.148 5.789,33.551 5.789,64.18 0,30.769 -1.969,52.32 -5.891,64.66 -3.918,12.351 -10.511,18.519 -19.746,18.519 -9.234,0 -15.828,-5.961 -19.75,-17.847 -3.922,-11.91 -5.883,-33.692 -5.883,-65.332 z m 125.895,0 c 0,-49.121 -8.234,-85.09 -24.688,-107.95 -16.453,-22.851 -41.652,-34.269 -75.574,-34.269 -33.164,0 -58.172,11.93 -75.004,35.789 -16.836,23.871 -25.257,59.34 -25.257,106.43 0,49.379 8.234,85.582 24.687,108.621 16.449,23.027 41.648,34.558 75.574,34.558 33.039,0 58.012,-11.988 74.91,-35.988 16.899,-23.98 25.352,-59.723 25.352,-107.191"
         style="fill:#438cc6;fill-opacity:1;fill-rule:nonzero;stroke:none"
         id="path66" /><path
         d="M 741.781,174.512 H 665.637 V 321.48 c 0,17.848 0.379,34.18 1.14,48.989 -4.683,-5.699 -10.511,-11.649 -17.468,-17.848 l -31.528,-26.012 -38.926,47.852 95.325,77.66 h 67.601 V 174.512"
         style="fill:#438cc6;fill-opacity:1;fill-rule:nonzero;stroke:none"
         id="path68" /><path
         d="M 820.746,174.512 916.07,389.648 H 795.867 v 62.09 h 200.332 v -44.25 L 898.406,174.512 h -77.66"
         style="fill:#438cc6;fill-opacity:1;fill-rule:nonzero;stroke:none"
         id="path70" /><path
         d="m 1007.36,249.129 v 59.242 h 107.29 v -59.242 h -107.29"
         style="fill:#438cc6;fill-opacity:1;fill-rule:nonzero;stroke:none"
         id="path72" /><path
         d="m 1218.1,327.75 h 13.67 c 11.28,0 20.22,3.148 26.87,9.488 6.64,6.321 9.97,15.063 9.97,26.203 0,18.731 -10.38,28.11 -31.14,28.11 h -19.37 z m 126.46,36.07 c 0,-31.011 -9.14,-54.968 -27.43,-71.871 -18.3,-16.898 -44.28,-25.34 -77.95,-25.34 h -21.08 v -92.097 h -75 v 277.609 h 96.08 c 35.06,0 61.4,-7.66 78.99,-22.98 17.59,-15.321 26.39,-37.102 26.39,-65.321"
         style="fill:#438cc6;fill-opacity:1;fill-rule:nonzero;stroke:none"
         id="path74" /><path
         d="m 1617.01,174.512 h -75.39 V 287.68 h -87.15 V 174.512 h -75.39 v 277.609 h 75.39 V 349.199 h 87.15 v 102.922 h 75.39 V 174.512"
         style="fill:#438cc6;fill-opacity:1;fill-rule:nonzero;stroke:none"
         id="path76" /><path
         d="m 1742.29,327.75 h 13.68 c 11.27,0 20.22,3.148 26.86,9.488 6.65,6.321 9.97,15.063 9.97,26.203 0,18.731 -10.37,28.11 -31.14,28.11 h -19.37 z m 126.47,36.07 c 0,-31.011 -9.14,-54.968 -27.44,-71.871 -18.29,-16.898 -44.27,-25.34 -77.95,-25.34 h -21.08 v -92.097 h -75 v 277.609 h 96.08 c 35.07,0 61.41,-7.66 78.99,-22.98 17.6,-15.321 26.4,-37.102 26.4,-65.321"
         style="fill:#438cc6;fill-opacity:1;fill-rule:nonzero;stroke:none"
         id="path78" /><path
         d="m 1835.12,1052.8 -166.56,212.36 c -8,10.21 -23.46,10.21 -31.47,0 L 1470.54,1052.8 c -11.72,-14.95 -35.74,-6.66 -35.74,12.34 V 2000 h 436.05 v -934.86 c 0,-19 -24,-27.29 -35.73,-12.34"
         style="fill:#438cc6;fill-opacity:1;fill-rule:nonzero;stroke:none"
         id="path80" /><path
         d="m 399.043,1544.73 -30.836,39.47 c 0,0 -139.773,0 -144.191,0 2.699,3.65 174.847,230.27 174.847,230.27 H 145.059 l 30.41,-39 c 0,0 140.23,0 144.687,0 -2.734,-3.61 -175.625,-230.7 -175.625,-230.7 l 254.512,-0.04"
         style="fill:#f4f4f4;fill-opacity:1;fill-rule:nonzero;stroke:none"
         id="path82" /><path
         d="M 845.738,1814.47 H 728.16 v -268.93 h 40.133 c 0,0 0,226.48 0,228.77 2.203,0 71.727,0 71.727,0 70.539,0 112.66,-32.13 112.66,-86.08 v -142.69 h 40.058 v 144.69 c 0,61.85 -45.457,124.24 -147,124.24"
         style="fill:#f4f4f4;fill-opacity:1;fill-rule:nonzero;stroke:none"
         id="path84" /><path
         d="m 1246.09,1774.36 v -189.57 c -2.2,0 -88.71,0 -88.71,0 -41.7,0 -80.98,32.2 -91.34,74.86 0,0.06 -1.57,20.44 -1.57,20.44 0,5.58 0.56,12.95 1.57,20.6 9.52,44.06 47.5,73.41 94.58,73.41 0,0 83.27,0.26 85.47,0.26 z m 4.88,116.79 c 0,0 -0.07,-74.51 -0.07,-76.68 -2.21,0 -92.67,0 -92.67,0 -67.84,0 -121.01,-44.55 -132.31,-110.87 -1.05,-8.67 -1.68,-16.84 -1.68,-23.51 0,-9.64 1.19,-19.18 1.68,-22.84 11.12,-65.31 66.72,-112.48 132.31,-112.48 l 128.06,-0.07 v 373.25 l -35.32,-26.8"
         style="fill:#f4f4f4;fill-opacity:1;fill-rule:nonzero;stroke:none"
         id="path86" /><path
         d="m 442.188,1705.49 c 11.574,46.09 53.98,79.44 101.507,79.44 47.528,0 89.899,-33.35 101.516,-79.44 z m 245.003,-40.34 0.739,14.74 c 0,79.63 -64.715,144.3 -144.235,144.3 -79.515,0 -144.199,-64.67 -144.199,-144.27 0,-79.53 64.684,-144.2 144.199,-144.2 60.543,0 115.016,38.27 135.602,95.44 H 636.438 C 618.23,1596.51 582.91,1575 543.695,1575 c -52.191,0 -96.425,38.72 -103.644,90.32 2.801,0 210.207,0 210.207,0 l 36.933,-0.17"
         style="fill:#f4f4f4;fill-opacity:1;fill-rule:nonzero;stroke:none"
         id="path88" /></g></g></svg>
