<svg width="512" height="512" viewBox="0 0 512 512" fill="none" xmlns="http://www.w3.org/2000/svg">
<path d="M207.532 343.467L207.788 343.382C216.663 340.395 225.964 338.944 235.265 338.944H302.935C313.004 338.944 321.111 330.838 321.111 320.768C321.111 310.699 313.004 302.592 302.935 302.592H254.38C242.775 302.592 231.34 299.52 221.527 293.376C209.665 286.038 190.465 276.054 166.572 270.763C125.697 261.718 98.3906 297.984 98.3906 297.984V347.99L114.348 349.611C133.889 351.574 153.004 356.523 171.009 364.374L219.479 385.451C237.911 393.472 258.732 393.814 277.42 386.304L316.417 370.688L323.415 368.982C341.932 364.374 357.292 351.403 364.972 333.91L402.775 248.064H399.617C387.244 248.064 375.639 253.867 368.3 263.766L321.793 317.355" fill="#FFE5D9"/>
<path d="M271.105 229.888C271.105 229.888 248.406 166.315 330.155 170.838C330.241 170.838 334.763 261.718 271.105 229.888Z" fill="#F6C396"/>
<path d="M237.567 166.058C237.567 166.058 167.935 191.658 172.117 101.802C172.031 101.802 271.871 95.9143 237.567 166.058Z" fill="#FADCFD"/>
<path d="M255.233 410.453C244.31 410.453 233.302 408.234 223.148 403.797L174.593 382.719C157.014 375.125 138.497 370.261 119.468 368.383L103.51 366.762C100.865 366.506 98.9023 364.287 98.9023 361.642V311.637C98.9023 310.527 99.2437 309.418 99.9263 308.565C101.121 306.943 129.708 269.653 173.313 279.381C197.804 284.842 217.601 294.997 229.804 302.591C238.678 308.138 249.089 311.039 259.926 311.039H308.481C316.844 311.039 324.182 315.477 328.278 322.133L370.092 274.005C378.198 263.167 391.425 256.597 405.334 256.597H408.492C410.198 256.597 411.82 257.45 412.758 258.901C413.697 260.351 413.868 262.143 413.185 263.765L375.382 349.61C367.105 368.383 350.294 382.549 330.412 387.583L323.756 389.205L285.1 404.65C275.542 408.575 265.388 410.453 255.233 410.453ZM109.228 357.034L120.577 358.143C140.716 360.191 160.257 365.226 178.774 373.333L227.244 394.41C244.31 401.834 263.937 402.09 281.26 395.178L320.257 379.562C320.513 379.477 320.684 379.391 320.94 379.391L327.937 377.685C344.833 373.503 359.084 361.471 365.996 345.514L400.47 267.178C391.681 268.458 383.489 273.237 378.113 280.405L331.862 333.738C331.862 333.909 331.862 334.165 331.862 334.335C331.862 347.221 321.366 357.631 308.566 357.631H240.897C232.108 357.631 223.404 359.082 215.041 361.813L213.164 357.034L211.542 352.17L211.798 352.085C221.185 348.927 230.913 347.391 240.897 347.391H308.566C315.734 347.391 321.622 341.503 321.622 334.335C321.622 327.167 315.734 321.279 308.566 321.279H260.012C247.297 321.279 235.009 317.866 224.428 311.295C212.822 304.127 194.22 294.485 171.094 289.365C138.07 282.026 114.262 307.37 109.142 313.429L109.228 357.034Z" fill="#512C1D"/>
<path d="M300.888 255.402C293.038 255.402 284.163 252.928 274.435 248.064C273.24 247.466 272.387 246.442 271.875 245.162C271.448 244.053 262.318 217.685 276.91 198.229C287.491 184.064 307.374 177.664 336.046 179.285C338.691 179.456 340.739 181.504 340.91 184.149C340.995 186.197 343.128 234.24 318.638 250.282C313.432 253.696 307.459 255.402 300.888 255.402ZM281.006 239.872C294.488 246.186 305.24 246.784 313.091 241.749C327.598 232.277 330.755 204.117 330.84 189.44C308.398 188.928 293.038 193.962 285.187 204.458C275.8 217.002 279.384 234.154 281.006 239.872Z" fill="#512C1D"/>
<path d="M222.466 188.245C213.335 188.245 202.924 186.282 193.708 179.626C178.177 168.277 171.01 146.602 172.461 115.285C172.546 112.64 174.679 110.592 177.239 110.421C179.458 110.336 231.937 107.52 249.601 133.973C257.793 146.346 257.197 162.474 247.639 182.016C247.042 183.21 246.017 184.149 244.822 184.576C244.225 184.746 234.583 188.245 222.466 188.245ZM182.614 120.405C182.188 145.493 187.906 162.645 199.767 171.264C213.933 181.674 233.303 177.237 239.447 175.445C246.445 160.341 247.042 148.224 241.154 139.52C230.402 123.392 198.742 120.234 182.614 120.405Z" fill="#512C1D"/>
<path d="M262.572 319.572C262.401 319.572 262.231 319.572 262.06 319.572C259.329 319.316 257.281 316.927 257.452 314.196C257.793 308.137 258.305 302.42 258.988 297.044C261.121 260.777 260.012 176.212 206.593 152.831C204.033 151.721 202.839 148.649 203.948 146.089C205.057 143.529 208.129 142.335 210.689 143.444C242.177 157.183 261.975 191.487 267.948 242.601C268.46 247.209 268.887 251.732 269.228 256.084C283.308 220.5 304.812 207.956 306.092 207.273C308.567 205.908 311.724 206.761 313.089 209.236C314.455 211.711 313.601 214.783 311.127 216.233C310.615 216.575 277.591 236.372 269.313 297.471C268.716 307.881 267.777 314.623 267.692 315.22C267.265 317.695 265.047 319.572 262.572 319.572Z" fill="#512C1D"/>
</svg>
