<svg width="479" height="480" viewBox="0 0 479 480" fill="none" xmlns="http://www.w3.org/2000/svg">
<path d="M234.824 479.584C215.722 478.699 196.893 474.859 181.625 468.734C174.085 465.709 162.201 459.318 152.779 453.221C142.47 446.549 130.038 435.516 123.188 426.961C113.417 414.758 106.512 398.725 104.737 384.115C103.579 374.582 104.333 360.816 106.735 347.65C113.39 311.175 130.251 266.072 177.537 158.258C181.55 149.107 187.187 136.39 190.062 129.997C202.74 101.81 216.83 70.6453 223.608 55.7982C227.646 46.952 230.95 39.5573 230.95 39.3643C230.95 39.1719 231.534 38.0938 232.247 36.9687C233.155 35.5373 234.522 34.3322 236.8 32.9563L240.055 30.9895L244.108 31.3104C247.441 31.5741 248.498 31.8538 250.053 32.8834C252.426 34.4546 254.332 37.0213 255.506 40.2258C257.576 45.8786 276.03 118.804 301.121 220.48C314.198 273.475 332.063 344.375 337.473 364.744C346.918 400.312 347.34 402.282 346.327 406.02C345.676 408.42 342.935 411.594 340.597 412.656C338.202 413.744 334.287 413.747 331.901 412.664C328.857 411.282 326.302 407.872 321.91 399.333C299.351 355.47 275.503 324.527 250.777 307.032C243.225 301.69 235.857 297.442 226.489 293.03C215.153 287.691 209.248 285.366 186.507 277.288C181.966 275.675 178.928 274.112 178.641 273.242C178.325 272.279 184.751 272.56 192.579 273.85C220.085 278.384 245.751 288.536 264.906 302.458C281.911 314.818 301.397 335.795 315.048 356.432C316.252 358.253 317.319 359.661 317.418 359.562C317.517 359.462 316.364 355.068 314.854 349.797C311.446 337.895 300.18 296.192 293.403 270.393C290.605 259.738 286.875 245.585 285.116 238.941C283.357 232.298 279.799 218.657 277.211 208.63C274.623 198.602 270.246 181.68 267.486 171.025C264.725 160.371 259.566 140.373 256.02 126.585C249.089 99.6301 241.387 70.1321 241.235 69.9566C241.141 69.849 234.819 83.8563 217.939 121.571C182.853 199.959 159.093 256.105 146.776 289.721C127.118 343.386 122.219 372.074 129.135 393.002C130.878 398.273 134.798 406.019 138.015 410.545C147.183 423.446 166.647 438.321 185.471 446.815C198.394 452.646 209.734 455.577 227.986 457.805C234.058 458.546 256.492 458.54 263.995 457.796C282.796 455.928 300.518 452.003 328.037 443.612C339.751 440.04 340.323 439.81 346.952 436.009C378.445 417.953 404.66 392.938 424.5 362.008C441.991 334.739 454.166 301.065 458.116 269.023C460.01 253.659 460.26 229.521 458.668 215.693C454.343 178.135 440.937 142.516 419.52 111.68C386.654 64.3624 337.454 31.5457 281.258 19.4607C266.107 16.2023 253.948 14.7835 237.787 14.3883C200.468 13.4755 164.926 21.4761 131.084 38.4084C111.347 48.3135 95.2851 60.014 78.9166 76.4399C45.1494 110.324 20.9396 158.298 11.7363 209.576C8.9914 224.869 8.00058 234.996 7.71608 250.668C7.29974 273.602 9.17172 290.79 14.2166 310.353C18.1972 325.789 23.0438 337.775 31.6695 353.511C34.173 358.079 39.1409 367.149 42.7093 373.668C50.4478 387.802 60.0139 406.322 60.0139 407.168C60.0139 408.639 53.644 398.551 33.1185 364.577C23.6856 348.964 21.1697 344.425 17.3667 336.153C-0.293546 297.745 -4.70143 247.843 5.13865 197.724C9.90663 173.437 19.3941 146.132 30.2783 125.373C41.8384 103.324 53.8151 86.3146 69.6781 69.4135C90.4338 47.2991 114.191 30.9625 143.483 18.6622C170.863 7.16519 197.232 1.36556 227.523 0.179069C252.39 -0.795051 277.341 2.20456 302.503 9.19307C326.283 15.7976 354.135 28.9616 374.293 43.1261C407.382 66.3744 433.242 95.9155 451.343 131.14C465.612 158.908 473.111 183.592 477.114 215.957C478.332 225.805 478.846 250.743 478.023 260.015C476.264 279.827 473.606 294.612 468.837 311.117C467.824 314.623 466.709 318.235 466.36 319.142C466.01 320.05 464.77 323.452 463.605 326.703C455.971 347.998 443.844 370.455 430.134 388.687C410.678 414.561 387.591 435.65 361.759 451.144C349.178 458.69 345.95 460.035 325.75 466.137C298.138 474.478 277.407 478.45 255.327 479.631C246.03 480.126 245.823 480.126 234.819 479.615L234.824 479.584Z" fill="#323A45"/>
</svg>
