<svg width="512" height="512" viewBox="0 0 512 512" fill="none" xmlns="http://www.w3.org/2000/svg">
<rect width="512" height="512" rx="256" fill="#323A45"/>
<path fill-rule="evenodd" clip-rule="evenodd" d="M256 435.2C354.97 435.2 435.2 354.97 435.2 256C435.2 157.031 354.97 76.8003 256 76.8003C157.031 76.8003 76.8003 157.031 76.8003 256C76.8003 354.97 157.031 435.2 256 435.2ZM256 469.334C373.821 469.334 469.334 373.821 469.334 256C469.334 138.18 373.821 42.667 256 42.667C138.18 42.667 42.667 138.18 42.667 256C42.667 373.821 138.18 469.334 256 469.334Z" fill="#C72825"/>
<path fill-rule="evenodd" clip-rule="evenodd" d="M351.542 264.895C346.842 269.501 337.46 276.33 325.395 272.898C317.503 270.654 311.943 265.356 308.227 260.674C304.418 255.875 301.339 250.191 298.779 244.653C294.362 235.099 290.385 223.45 286.745 212.789C286.209 211.22 285.681 209.673 285.16 208.156C280.834 195.573 276.95 185.012 272.809 177.709C272.773 177.647 272.738 177.585 272.703 177.524C270.971 181.743 269.109 187.261 267.157 194.074C261.562 213.592 256.281 239.806 250.842 266.974L250.561 268.376C245.306 294.626 239.889 321.684 234.052 342.271C231.111 352.643 227.784 362.413 223.862 369.893C221.918 373.6 219.361 377.664 215.932 381.007C212.47 384.382 206.775 388.267 199.051 388.267C189.625 388.267 182.136 383.741 177.267 376.896C173.257 371.261 171.234 364.374 169.889 358.616C168.467 352.528 167.294 345.233 166.067 337.58L165.949 336.846C164.719 329.174 163.356 320.67 161.511 311.176C153.98 272.432 138.295 216.594 92.104 148.309L120.376 129.184C169.693 202.09 186.817 262.479 195.017 304.663C196.972 314.722 198.413 323.71 199.633 331.328L199.769 332.176C199.976 333.462 200.174 334.696 200.366 335.882C200.646 334.936 200.929 333.962 201.213 332.959C206.68 313.678 211.884 287.689 217.302 260.627L217.373 260.273C222.72 233.566 228.283 205.817 234.345 184.668C237.348 174.19 240.747 164.328 244.748 156.735C246.738 152.96 249.307 148.902 252.694 145.543C256.086 142.178 261.545 138.326 268.993 137.956C286.925 137.067 297.345 151.781 302.5 160.872C308.458 171.378 313.282 184.968 317.439 197.058C317.998 198.686 318.548 200.292 319.089 201.873C322.819 212.779 326.152 222.523 329.761 230.329C330.531 231.995 331.26 233.45 331.946 234.713C332.721 233.456 333.562 232 334.461 230.328C340.35 219.381 346.491 203.488 352.159 186.473C357.761 169.659 362.644 152.545 366.138 139.575C367.881 133.106 369.27 127.702 370.22 123.925C370.695 122.038 371.06 120.559 371.304 119.559C371.426 119.059 371.518 118.679 371.579 118.428C371.609 118.303 371.632 118.209 371.646 118.149L371.665 118.07L371.666 118.068C371.665 118.069 371.665 118.07 388.267 122.027C404.868 125.984 404.868 125.986 404.867 125.988L404.866 125.996L404.838 126.109C404.82 126.185 404.794 126.294 404.76 126.436C404.691 126.719 404.591 127.133 404.461 127.667C404.199 128.735 403.816 130.288 403.321 132.254C402.332 136.185 400.896 141.775 399.096 148.455C395.505 161.784 390.43 179.59 384.543 197.262C378.722 214.732 371.843 232.888 364.522 246.498C360.934 253.169 356.64 259.9 351.542 264.895ZM327.115 240.996C327.116 240.993 327.156 240.958 327.236 240.902C327.154 240.971 327.115 240.999 327.115 240.996ZM336.053 240.643C336.068 240.654 336.075 240.66 336.075 240.66C336.075 240.66 336.067 240.655 336.053 240.643ZM268.327 171.611C268.327 171.608 268.358 171.625 268.418 171.669C268.357 171.636 268.327 171.614 268.327 171.611Z" fill="#C72825"/>
</svg>
